<svg width="250" height="63" viewBox="0 0 250 63" fill="none" xmlns="http://www.w3.org/2000/svg">
<path d="M55.9755 39.6005C54.0806 45.532 50.1674 50.5859 44.936 53.8579C39.7045 57.1299 33.4963 58.4066 27.4221 57.4594C21.3479 56.5122 15.804 53.403 11.7824 48.6881C7.76088 43.9732 5.52402 37.9603 5.47211 31.7253C5.4202 25.4902 7.55662 19.4398 11.4991 14.6567C15.4416 9.87352 20.9329 6.66975 26.9905 5.61859C33.0481 4.56742 39.2767 5.73745 44.5618 8.91933C49.847 12.1012 53.8438 17.0873 55.8372 22.9855H58.7558C56.7389 16.3075 52.4202 10.5893 46.5895 6.87645C40.7588 3.16357 33.8057 1.70415 27.0017 2.76504C20.1976 3.82593 13.9973 7.33625 9.53442 12.6541C5.07156 17.972 2.64441 24.742 2.69678 31.7263C2.74916 38.7105 5.27757 45.4423 9.81967 50.6907C14.3618 55.939 20.6141 59.3532 27.4332 60.3089C34.2524 61.2646 41.1828 59.698 46.9571 55.8955C52.7314 52.0931 56.9639 46.3088 58.8804 39.6005H55.9755Z" fill="#18283B"/>
<path d="M68.4834 19.0503L75.3598 36.7282L82.3935 17.785L89.1918 36.7346L96.3027 19.0567H100.601L88.9574 47.1977L82.1538 28.4464L75.2774 47.1956L64.1845 19.0503H68.4834Z" fill="#18283B"/>
<path d="M109.82 19.0503C111.818 18.9477 113.801 19.4441 115.522 20.4774C116.542 21.1955 117.372 22.1579 117.938 23.2792C118.503 24.4006 118.787 25.6462 118.765 26.9057C118.79 28.0006 118.575 29.0873 118.136 30.0878C117.696 31.0882 117.044 31.9773 116.225 32.6912C114.423 34.1465 112.156 34.8803 109.856 34.7536H108.061V45.4931H104.076V19.0503H109.82ZM108.062 31.023H109.857C113.296 31.023 114.937 29.3184 114.937 26.8607C114.937 25.394 114.351 22.7766 109.818 22.7766H108.06L108.062 31.023Z" fill="#18283B"/>
<path d="M134.903 24.284C134.53 23.5268 134.012 22.8528 133.379 22.302C132.531 21.6724 131.498 21.3509 130.448 21.3891C127.871 21.3891 126.072 23.0155 126.072 25.4733C126.046 25.9074 126.121 26.3417 126.29 26.7411C126.46 27.1405 126.72 27.4938 127.049 27.7724C127.849 28.4973 128.777 29.0622 129.784 29.4374L132.285 30.5473C133.769 31.1163 135.134 31.9635 136.31 33.0447C136.935 33.6671 137.425 34.4154 137.748 35.2416C138.071 36.0677 138.22 36.9533 138.185 37.8413C138.185 42.7183 134.63 45.9688 129.94 45.9688C128.903 46.0137 127.867 45.8473 126.894 45.4792C125.921 45.1112 125.03 44.5491 124.275 43.8261C123.052 42.5279 122.212 40.9071 121.853 39.1484L124.666 38.3556C124.836 39.6137 125.382 40.789 126.229 41.724C126.976 42.4371 127.911 42.9163 128.92 43.1042C129.93 43.2921 130.971 43.1807 131.919 42.7833C132.868 42.386 133.683 41.7196 134.268 40.864C134.853 40.0083 135.182 38.9998 135.216 37.9592C135.239 37.3791 135.135 36.8011 134.912 36.2665C134.689 35.7318 134.353 35.2536 133.927 34.8661C132.986 34.0944 131.931 33.4796 130.8 33.0447L128.456 31.9348C127.178 31.4236 126 30.6853 124.978 29.7545C124.383 29.2134 123.914 28.5453 123.603 27.7983C123.293 27.0512 123.149 26.2436 123.183 25.4336C123.183 21.3495 126.27 18.6143 130.489 18.6143C131.972 18.5561 133.435 18.9721 134.671 19.8035C135.743 20.5541 136.616 21.5622 137.211 22.738L134.903 24.284Z" fill="#18283B"/>
<path d="M145.88 31.6573V45.4932H143.067V31.6573H141.348V29.041H143.067V23.0948H145.88V29.041H148.694V31.6573H145.88Z" fill="#18283B"/>
<path d="M163.971 29.041H166.784V45.4931H163.971V43.194C163.326 44.0661 162.487 44.7718 161.523 45.2539C160.559 45.736 159.496 45.9809 158.422 45.9688C154.319 45.9688 150.529 43.0354 150.529 37.2478C150.529 31.578 154.28 28.6446 158.422 28.6446C159.495 28.6167 160.559 28.8506 161.525 29.3266C162.49 29.8026 163.329 30.5067 163.971 31.3798V29.041ZM153.421 37.2478C153.421 40.7758 155.374 43.4318 158.734 43.4318C162.174 43.4318 164.126 40.5391 164.126 37.2874C164.126 33.0447 161.235 31.1805 158.734 31.1805C155.966 31.1773 153.421 33.2429 153.421 37.2478Z" fill="#18283B"/>
<path d="M175.184 31.6573V45.4932H172.371V31.6573H170.652V29.041H172.371V23.0948H175.184V29.041H177.998V31.6573H175.184Z" fill="#18283B"/>
<path d="M182.259 20.7945C182.653 20.7943 183.039 20.9128 183.367 21.1349C183.695 21.357 183.951 21.6729 184.102 22.0425C184.253 22.4121 184.292 22.8188 184.216 23.2113C184.139 23.6037 183.949 23.9642 183.67 24.2472C183.391 24.5302 183.036 24.723 182.649 24.8011C182.263 24.8793 181.862 24.8393 181.497 24.6862C181.133 24.5331 180.822 24.2739 180.602 23.9412C180.383 23.6085 180.266 23.2174 180.266 22.8173C180.268 22.2816 180.479 21.7684 180.852 21.3895C181.225 21.0107 181.731 20.7968 182.259 20.7945ZM183.667 29.0442V45.4932H180.852V29.041L183.667 29.0442Z" fill="#18283B"/>
<path d="M195.85 32.8465C195.681 32.3705 195.374 31.9571 194.97 31.6602C194.566 31.3633 194.083 31.1966 193.584 31.1816C193.332 31.1588 193.078 31.1905 192.839 31.2744C192.599 31.3584 192.38 31.4927 192.196 31.6687C192.011 31.8446 191.865 32.0582 191.768 32.2954C191.671 32.5325 191.624 32.7879 191.631 33.0447C191.631 34.234 192.412 34.5907 194.248 35.3836C196.594 36.3746 197.688 37.1278 198.313 37.9217C198.914 38.6685 199.22 39.6149 199.172 40.5776C199.172 44.0264 196.71 45.9688 193.584 45.9688C192.317 45.9929 191.077 45.595 190.054 44.8362C189.031 44.0773 188.281 42.9992 187.919 41.7669L190.341 40.7362C190.548 41.4737 190.974 42.1285 191.562 42.6109C192.149 43.0934 192.869 43.3801 193.623 43.4318C193.971 43.4516 194.318 43.3981 194.644 43.2747C194.97 43.1513 195.268 42.9607 195.517 42.7148C195.767 42.469 195.964 42.1733 196.095 41.8463C196.227 41.5194 196.29 41.1684 196.281 40.8155C196.281 39.2684 195.187 38.7541 193.662 38.0792C192.187 37.5782 190.84 36.7524 189.716 35.661C189.187 34.9737 188.924 34.1135 188.977 33.2429C188.95 32.6147 189.056 31.9878 189.286 31.4042C189.517 30.8206 189.868 30.2936 190.315 29.8585C190.763 29.4233 191.296 29.0899 191.881 28.8806C192.465 28.6713 193.087 28.5908 193.705 28.6445C194.657 28.6208 195.594 28.8928 196.39 29.4241C197.186 29.9554 197.803 30.7207 198.159 31.6176L195.85 32.8465Z" fill="#18283B"/>
<path d="M206.009 31.6573V45.4932H203.196V31.6573H201.478V29.041H203.197V23.0948H206.01V29.041H208.824V31.6573H206.009Z" fill="#18283B"/>
<path d="M213.08 20.7945C213.475 20.7945 213.86 20.9131 214.188 21.1352C214.516 21.3573 214.771 21.6731 214.922 22.0425C215.073 22.4119 215.113 22.8185 215.036 23.2107C214.959 23.603 214.77 23.9635 214.491 24.2465C214.213 24.5295 213.858 24.7224 213.471 24.8008C213.085 24.8792 212.684 24.8396 212.32 24.687C211.955 24.5344 211.644 24.2757 211.424 23.9434C211.205 23.6112 211.087 23.2204 211.087 22.8205C211.089 22.2845 211.3 21.7712 211.673 21.3918C212.047 21.0125 212.552 20.7979 213.08 20.7945ZM214.487 29.0442V45.4932H211.674V29.041L214.487 29.0442Z" fill="#18283B"/>
<path d="M232.694 33.6415C232.082 32.8728 231.308 32.2527 230.429 31.8263C229.55 31.4 228.589 31.1782 227.615 31.1773C226.829 31.161 226.049 31.3113 225.324 31.6186C224.598 31.9259 223.945 32.3835 223.404 32.962C222.863 33.5405 222.447 34.2272 222.183 34.9781C221.919 35.729 221.813 36.5276 221.87 37.3228C221.818 38.1112 221.928 38.902 222.192 39.6454C222.456 40.3888 222.868 41.0687 223.404 41.6423C223.94 42.2159 224.587 42.6709 225.304 42.9785C226.021 43.2861 226.794 43.4397 227.572 43.4296C228.577 43.4129 229.566 43.1742 230.47 42.7301C231.375 42.2861 232.173 41.6473 232.809 40.8583V44.2675C231.314 45.3814 229.506 45.9789 227.652 45.972C226.515 46.0237 225.381 45.838 224.318 45.4265C223.256 45.015 222.288 44.3865 221.475 43.5799C220.661 42.7733 220.02 41.8058 219.59 40.7374C219.161 39.669 218.952 38.5225 218.977 37.3688C218.946 36.2083 219.15 35.0537 219.577 33.9762C220.003 32.8988 220.642 31.9213 221.455 31.1042C222.267 30.287 223.237 29.6475 224.302 29.225C225.368 28.8025 226.508 28.6061 227.652 28.6478C229.454 28.6266 231.217 29.1813 232.692 30.2334L232.694 33.6415Z" fill="#18283B"/>
<path d="M243.984 32.8465C243.815 32.3705 243.508 31.9571 243.104 31.6602C242.7 31.3633 242.217 31.1966 241.718 31.1816C241.466 31.1588 241.212 31.1905 240.972 31.2744C240.733 31.3584 240.514 31.4927 240.33 31.6687C240.145 31.8446 239.999 32.0582 239.902 32.2954C239.805 32.5325 239.758 32.7879 239.765 33.0447C239.765 34.234 240.546 34.5907 242.382 35.3836C244.728 36.3746 245.822 37.1278 246.447 37.9217C247.047 38.6685 247.354 39.6149 247.306 40.5776C247.306 44.0264 244.844 45.9688 241.718 45.9688C240.451 45.9929 239.211 45.595 238.188 44.8362C237.165 44.0773 236.415 42.9992 236.053 41.7669L238.475 40.7362C238.682 41.4737 239.108 42.1285 239.696 42.6109C240.283 43.0934 241.003 43.3801 241.757 43.4318C242.105 43.4516 242.452 43.3981 242.778 43.2747C243.104 43.1513 243.402 42.9607 243.651 42.7148C243.901 42.469 244.098 42.1733 244.229 41.8463C244.361 41.5194 244.424 41.1684 244.415 40.8155C244.415 39.2684 243.321 38.7541 241.796 38.0792C240.321 37.5782 238.974 36.7524 237.85 35.661C237.321 34.9737 237.058 34.1135 237.111 33.2429C237.084 32.6147 237.189 31.9878 237.42 31.4042C237.651 30.8206 238.002 30.2936 238.449 29.8585C238.897 29.4233 239.43 29.0899 240.015 28.8806C240.599 28.6713 241.221 28.5908 241.838 28.6445C242.791 28.6208 243.728 28.8928 244.524 29.4241C245.32 29.9554 245.937 30.7207 246.293 31.6176L243.984 32.8465Z" fill="#18283B"/>
<path d="M56.5879 28.5835L55.1096 27.8067L49.3123 39.1634C49.0119 38.863 48.6541 38.628 48.2609 38.4731C47.8677 38.3181 47.4474 38.2464 47.0258 38.2624C46.6043 38.2783 46.1904 38.3816 45.8097 38.5659C45.4289 38.7501 45.0894 39.0114 44.8118 39.3338L39.3293 31.8951C39.2934 31.8394 39.2438 31.7987 39.2057 31.7462C39.3063 31.4399 39.3598 31.1198 39.3641 30.797C39.3709 30.3357 39.2782 29.8784 39.0927 29.4572C38.9071 29.036 38.6331 28.661 38.2899 28.3584C37.9466 28.0558 37.5423 27.833 37.1053 27.7054C36.6683 27.5779 36.2091 27.5487 35.7599 27.6199C35.3106 27.6911 34.8821 27.8611 34.5043 28.1178C34.1265 28.3746 33.8085 28.712 33.5726 29.1064C33.3367 29.5008 33.1885 29.9427 33.1385 30.4013C33.0884 30.8599 33.1377 31.324 33.2828 31.7612C33.2512 31.8062 33.2089 31.8394 33.1773 31.8866L29.3262 38.6224C28.7416 38.0961 27.9821 37.8145 27.2008 37.8343C26.4196 37.8542 25.6749 38.1741 25.1171 38.7295L20.0168 30.1059C20.1419 29.7658 20.2076 29.4061 20.2111 29.0431C20.1961 28.2128 19.8604 27.4217 19.2764 26.8399C18.6923 26.2582 17.9066 25.9322 17.0881 25.9322C16.2696 25.9322 15.4839 26.2582 14.8998 26.8399C14.3158 27.4217 13.9801 28.2128 13.9651 29.0431C13.9651 29.0528 13.9651 29.0613 13.9651 29.071C13.8595 29.1642 13.7602 29.237 13.6589 29.3399L4.54697 38.7788L5.73704 39.9573L14.529 30.8505C14.766 31.1993 15.0701 31.4958 15.4231 31.7222C15.7761 31.9485 16.1705 32.1001 16.5827 32.1676C16.9949 32.2352 17.4164 32.2174 17.8216 32.1153C18.2269 32.0133 18.6076 31.829 18.9408 31.5737L24.2164 40.4984C24.1465 40.93 24.1657 41.3716 24.2726 41.7953C24.3795 42.219 24.5718 42.6156 24.8374 42.9601C25.103 43.3046 25.4361 43.5895 25.8157 43.7968C26.1953 44.0041 26.6132 44.1292 27.0429 44.1644C27.4726 44.1995 27.9048 44.1439 28.3122 44.001C28.7196 43.8581 29.0934 43.6311 29.41 43.3342C29.7266 43.0373 29.979 42.677 30.1514 42.2762C30.3238 41.8753 30.4125 41.4425 30.4117 41.0051C30.4095 40.752 30.3769 40.5002 30.3145 40.2552L34.3124 33.2644C34.8663 33.7232 35.5613 33.9704 36.2764 33.963C36.9914 33.9555 37.6813 33.6939 38.2258 33.2237L44.042 41.1144C44.026 41.2209 44.0154 41.3282 44.0104 41.4358C44.0254 42.2661 44.3611 43.0572 44.9451 43.639C45.5291 44.2208 46.3149 44.5467 47.1334 44.5467C47.9518 44.5467 48.7376 44.2208 49.3216 43.639C49.9057 43.0572 50.2413 42.2661 50.2564 41.4358C50.2512 41.3112 50.2386 41.1871 50.2184 41.064L56.5879 28.5835ZM17.0812 31.5041C16.6009 31.5041 16.1313 31.3596 15.7319 31.0888C15.3325 30.818 15.0212 30.4332 14.8374 29.9829C14.6536 29.5326 14.6055 29.0372 14.6992 28.5592C14.7929 28.0812 15.0242 27.6421 15.3639 27.2975C15.7035 26.9528 16.1363 26.7181 16.6074 26.6231C17.0785 26.528 17.5669 26.5768 18.0107 26.7633C18.4544 26.9498 18.8338 27.2656 19.1006 27.6709C19.3675 28.0761 19.5099 28.5525 19.5099 29.0399C19.5099 29.3635 19.4471 29.6839 19.3251 29.9829C19.203 30.2819 19.0241 30.5535 18.7986 30.7823C18.5731 31.0112 18.3053 31.1927 18.0107 31.3165C17.716 31.4403 17.4002 31.5041 17.0812 31.5041ZM27.2892 43.4854C26.8089 43.4854 26.3393 43.3408 25.9399 43.0701C25.5405 42.7993 25.2292 42.4145 25.0454 41.9642C24.8616 41.5139 24.8135 41.0185 24.9072 40.5404C25.0009 40.0624 25.2322 39.6234 25.5719 39.2787C25.9115 38.9341 26.3443 38.6994 26.8154 38.6044C27.2865 38.5093 27.7749 38.5581 28.2186 38.7446C28.6624 38.9311 29.0417 39.2469 29.3086 39.6522C29.5755 40.0574 29.7179 40.5338 29.7179 41.0212C29.7179 41.6747 29.462 42.3015 29.0066 42.7636C28.5511 43.2258 27.9333 43.4854 27.2892 43.4854ZM36.2459 33.2194C35.7655 33.2194 35.296 33.0748 34.8966 32.8041C34.4972 32.5333 34.1859 32.1485 34.002 31.6982C33.8182 31.2479 33.7701 30.7524 33.8638 30.2744C33.9575 29.7964 34.1889 29.3574 34.5285 29.0127C34.8682 28.6681 35.3009 28.4334 35.7721 28.3383C36.2432 28.2433 36.7315 28.2921 37.1753 28.4786C37.6191 28.6651 37.9984 28.9809 38.2653 29.3862C38.5322 29.7914 38.6746 30.2678 38.6746 30.7552C38.6746 31.4087 38.4187 32.0355 37.9632 32.4976C37.5078 32.9597 36.89 33.2194 36.2459 33.2194ZM47.135 43.8957C46.6546 43.8957 46.185 43.7512 45.7856 43.4804C45.3862 43.2097 45.0749 42.8248 44.8911 42.3745C44.7073 41.9243 44.6592 41.4288 44.7529 40.9508C44.8466 40.4728 45.0779 40.0337 45.4176 39.6891C45.7573 39.3445 46.19 39.1098 46.6611 39.0147C47.1323 38.9196 47.6206 38.9684 48.0644 39.1549C48.5082 39.3414 48.8875 39.6573 49.1544 40.0625C49.4212 40.4677 49.5637 40.9442 49.5637 41.4315C49.5637 42.0851 49.3078 42.7118 48.8523 43.174C48.3968 43.6361 47.7791 43.8957 47.135 43.8957Z" fill="#18283B"/>
</svg>
